<svg width="208" height="41" viewBox="0 0 208 41" fill="none" xmlns="http://www.w3.org/2000/svg">
<mask id="path-1-inside-1_5_365" fill="white">
<path fill-rule="evenodd" clip-rule="evenodd" d="M13.5641 1.51126C11.7862 2.10776 11.0459 4.24329 12.0781 5.79751C12.3866 6.26193 12.9381 6.72107 13.3623 6.86669L13.652 6.96616L13.6937 8.16019L13.0935 8.2097C11.3749 8.35153 9.39424 9.10072 7.78562 10.2173C6.90009 10.832 5.45291 12.3284 4.86113 13.2413C3.52663 15.2997 2.89451 17.3951 2.89212 19.7679L2.89118 20.7647H1.63643C0.476697 20.7647 0.367192 20.7764 0.190838 20.919L0 21.0733V24.6253L0.190838 24.7796C0.330038 24.8921 0.486765 24.9339 0.770234 24.9339H1.15879V30.782C1.15879 36.9817 1.15807 36.9674 1.48796 37.0975C1.64121 37.158 26.894 37.158 27.0473 37.0975C27.3771 36.9674 27.3764 36.9817 27.3764 30.782V24.9339H27.7707C28.0831 24.9339 28.2072 24.8966 28.3682 24.7543L28.5714 24.5745V21.1241L28.3682 20.9443C28.1701 20.7692 28.1333 20.7647 26.8913 20.7647H25.6176L25.6616 20.3327C25.7161 19.7962 25.6047 18.3191 25.4499 17.5261C25.1735 16.1106 24.5005 14.4882 23.6583 13.208C23.0791 12.3274 21.6062 10.8134 20.7496 10.2179C19.125 9.08866 17.1471 8.34289 15.4121 8.20531L14.847 8.16056V7.5736C14.847 7.07999 14.8671 6.98015 14.9737 6.94553C16.3898 6.48521 17.1846 5.19394 16.2715 4.8371C16.0023 4.7319 15.798 4.82966 15.3719 5.26772C14.7416 5.91559 13.9554 5.97247 13.3005 5.41752C12.4583 4.70391 12.6124 3.30343 13.5865 2.81876C13.8622 2.68155 14.0334 2.65325 14.5295 2.66278C15.252 2.67663 15.4264 2.5654 15.4264 2.09063C15.4264 1.61921 15.1949 1.46049 14.4663 1.43212C14.0957 1.41768 13.7535 1.44776 13.5641 1.51126ZM13.0365 9.52687C8.7459 10.0794 5.17827 13.452 4.30469 17.7811C4.1539 18.5287 4.04867 19.8864 4.10386 20.3738L4.14811 20.7647H24.3966L24.4465 20.3541C24.5091 19.8394 24.4345 18.8562 24.263 17.9327C23.494 13.792 20.3284 10.5165 16.2748 9.66728C15.4244 9.48913 13.8572 9.42115 13.0365 9.52687ZM1.15879 23.6682H27.3764V22.0303H1.15879V23.6682ZM2.39001 32.6767H11.0085L11.0136 31.5041C11.0164 30.8592 11.0408 30.2769 11.0679 30.2101C11.1744 29.9472 13.9253 26.8806 14.0935 26.8372C14.1892 26.8125 14.346 26.8125 14.4417 26.8372C14.6099 26.8806 17.3608 29.9472 17.4673 30.2101C17.4944 30.2769 17.5188 30.8592 17.5216 31.5041L17.5267 32.6767H26.1452V24.9339H2.39001V32.6767ZM13.2245 29.558L12.2397 30.6829V35.9525H16.2955V30.6829L15.3107 29.558C14.7691 28.9393 14.2997 28.4331 14.2676 28.4331C14.2355 28.4331 13.7661 28.9393 13.2245 29.558ZM2.39001 35.9525H11.0085V33.9424H2.39001V35.9525ZM17.5267 35.9525H26.1452V33.9424H17.5267V35.9525Z"/>
</mask>
<path d="M13.5641 1.51126L9.0239 -12.0338L9.02001 -12.0325L13.5641 1.51126ZM12.0781 5.79751L0.178006 13.7012L0.178033 13.7012L12.0781 5.79751ZM13.3623 6.86669L18.0014 -6.6448L18.0009 -6.64498L13.3623 6.86669ZM13.652 6.96616L27.929 6.46735L27.5859 -3.35403L18.2911 -6.54534L13.652 6.96616ZM13.6937 8.16019L14.868 22.3976L28.4464 21.2776L27.9707 7.66138L13.6937 8.16019ZM13.0935 8.2097L11.9192 -6.02767L11.9185 -6.02762L13.0935 8.2097ZM7.78562 10.2173L15.9315 21.953L15.9317 21.9529L7.78562 10.2173ZM4.86113 13.2413L16.8482 21.0124L16.8485 21.0119L4.86113 13.2413ZM2.89212 19.7679L-11.3936 19.7536L-11.3936 19.7545L2.89212 19.7679ZM2.89118 20.7647V35.0504H17.1634L17.1769 20.7782L2.89118 20.7647ZM0.190838 20.919L9.17137 32.029L9.17498 32.0261L0.190838 20.919ZM0 21.0733L-8.98053 9.9633L-14.2857 14.2516V21.0733H0ZM0 24.6253H-14.2857V31.447L-8.98053 35.7353L0 24.6253ZM0.190838 24.7796L9.17376 13.6715L9.17137 13.6696L0.190838 24.7796ZM1.15879 24.9339H15.4445V10.6482H1.15879V24.9339ZM1.48796 37.0975L-3.75442 50.3866L-3.75429 50.3866L1.48796 37.0975ZM27.0473 37.0975L32.2895 50.3866L32.2896 50.3866L27.0473 37.0975ZM27.3764 24.9339V10.6482H13.0907V24.9339H27.3764ZM28.3682 24.7543L37.8308 35.4566L37.832 35.4555L28.3682 24.7543ZM28.5714 24.5745L38.0353 35.2758L42.8571 31.0115V24.5745H28.5714ZM28.5714 21.1241H42.8571V14.6871L38.0353 10.4228L28.5714 21.1241ZM28.3682 20.9443L37.832 10.243L37.8303 10.2415L28.3682 20.9443ZM25.6176 20.7647L11.4053 19.3183L9.80422 35.0504H25.6176V20.7647ZM25.6616 20.3327L39.8739 21.7791L39.8741 21.7773L25.6616 20.3327ZM25.4499 17.5261L11.4289 20.2636L11.4289 20.2637L25.4499 17.5261ZM23.6583 13.208L11.7232 21.0588L11.7233 21.0589L23.6583 13.208ZM20.7496 10.2179L28.9033 -1.5123L28.9032 -1.51239L20.7496 10.2179ZM15.4121 8.20531L16.5415 -6.0357L16.5397 -6.03584L15.4121 8.20531ZM14.847 8.16056H0.561288V21.3599L13.7194 22.4017L14.847 8.16056ZM14.9737 6.94553L19.386 20.5328L19.3902 20.5314L14.9737 6.94553ZM16.2715 4.8371L21.4716 -8.46855L21.4712 -8.46874L16.2715 4.8371ZM13.3005 5.41752L4.06504 16.3165L4.06517 16.3167L13.3005 5.41752ZM13.5865 2.81876L19.9503 15.6088L19.9526 15.6076L13.5865 2.81876ZM14.5295 2.66278L14.2551 16.9459L14.2557 16.9459L14.5295 2.66278ZM14.4663 1.43212L13.9101 15.707L13.9106 15.707L14.4663 1.43212ZM13.0365 9.52687L14.8612 23.6956L14.8616 23.6955L13.0365 9.52687ZM4.30469 17.7811L-9.69876 14.9553L-9.69899 14.9564L4.30469 17.7811ZM4.10386 20.3738L18.2989 18.7668L18.2989 18.7666L4.10386 20.3738ZM4.14811 20.7647L-10.0469 22.3718L-8.61153 35.0504H4.14811V20.7647ZM24.3966 20.7647V35.0504H37.0512L38.578 22.4882L24.3966 20.7647ZM24.4465 20.3541L10.2652 18.6299L10.2651 18.6305L24.4465 20.3541ZM24.263 17.9327L38.3086 15.3245L38.3086 15.3242L24.263 17.9327ZM16.2748 9.66728L19.204 -4.31491L19.2039 -4.31494L16.2748 9.66728ZM1.15879 23.6682H-13.1269V37.954H1.15879V23.6682ZM27.3764 23.6682V37.954H41.6621V23.6682H27.3764ZM27.3764 22.0303H41.6621V7.74463H27.3764V22.0303ZM1.15879 22.0303V7.74463H-13.1269V22.0303H1.15879ZM2.39001 32.6767H-11.8957V46.9624H2.39001V32.6767ZM11.0085 32.6767V46.9624H25.2326L25.2941 32.7385L11.0085 32.6767ZM11.0136 31.5041L-3.272 31.4416L-3.272 31.4424L11.0136 31.5041ZM11.0679 30.2101L24.3061 35.5795L24.3077 35.5757L11.0679 30.2101ZM14.0935 26.8372L17.6636 40.6696L17.6644 40.6694L14.0935 26.8372ZM14.4417 26.8372L10.8708 40.6694L10.8716 40.6696L14.4417 26.8372ZM17.4673 30.2101L4.22751 35.5757L4.22908 35.5795L17.4673 30.2101ZM17.5216 31.5041L31.8072 31.4424L31.8072 31.4416L17.5216 31.5041ZM17.5267 32.6767L3.24112 32.7385L3.30263 46.9624H17.5267V32.6767ZM26.1452 32.6767V46.9624H40.4309V32.6767H26.1452ZM26.1452 24.9339H40.4309V10.6482H26.1452V24.9339ZM2.39001 24.9339V10.6482H-11.8957V24.9339H2.39001ZM13.2245 29.558L2.4761 20.1477L2.47541 20.1485L13.2245 29.558ZM12.2397 30.6829L1.49066 21.2734L-2.04599 25.3135V30.6829H12.2397ZM12.2397 35.9525H-2.04599V50.2383H12.2397V35.9525ZM16.2955 35.9525V50.2383H30.5812V35.9525H16.2955ZM16.2955 30.6829H30.5812V25.3136L27.0446 21.2734L16.2955 30.6829ZM15.3107 29.558L26.0598 20.1485L26.0591 20.1477L15.3107 29.558ZM2.39001 35.9525H-11.8957V50.2383H2.39001V35.9525ZM11.0085 35.9525V50.2383H25.2942V35.9525H11.0085ZM11.0085 33.9424H25.2942V19.6567H11.0085V33.9424ZM2.39001 33.9424V19.6567H-11.8957V33.9424H2.39001ZM17.5267 35.9525H3.24099V50.2383H17.5267V35.9525ZM26.1452 35.9525V50.2383H40.4309V35.9525H26.1452ZM26.1452 33.9424H40.4309V19.6567H26.1452V33.9424ZM17.5267 33.9424V19.6567H3.24099V33.9424H17.5267ZM9.02001 -12.0325C-1.5695 -8.4796 -6.11071 4.23264 0.178006 13.7012L23.9783 -2.10618C28.2025 4.25394 25.1419 12.6951 18.1081 15.055L9.02001 -12.0325ZM0.178033 13.7012C1.22104 15.2716 2.42802 16.5077 3.53631 17.4304C4.53499 18.2619 6.29408 19.5443 8.72373 20.3784L18.0009 -6.64498C19.11 -6.26422 19.9396 -5.81266 20.4587 -5.49638C21.0096 -5.16075 21.459 -4.82544 21.8173 -4.52709C22.4667 -3.98644 23.2437 -3.21218 23.9783 -2.10622L0.178033 13.7012ZM8.72321 20.3782L9.01291 20.4776L18.2911 -6.54534L18.0014 -6.6448L8.72321 20.3782ZM12.5194 -6.07718L11.9192 -6.02767L14.2678 22.4471L14.868 22.3976L12.5194 -6.07718ZM11.9185 -6.02762C7.37226 -5.65243 3.02654 -3.86927 -0.360469 -1.51821L15.9317 21.9529C15.7398 22.0861 15.5929 22.1566 15.4523 22.2098C15.3337 22.2547 14.9488 22.3909 14.2684 22.447L11.9185 -6.02762ZM-0.360273 -1.51835C-1.91371 -0.440089 -3.24139 0.844138 -4.05573 1.68617C-4.87458 2.53287 -6.10501 3.89511 -7.1263 5.4706L16.8485 21.0119C16.6937 21.2508 16.5729 21.4144 16.5141 21.4921C16.4504 21.5764 16.4106 21.6243 16.4015 21.6351C16.3881 21.6511 16.4184 21.6147 16.4822 21.5487C16.5461 21.4826 16.5801 21.4526 16.5618 21.469C16.5499 21.4796 16.501 21.523 16.4158 21.592C16.3373 21.6555 16.1724 21.7858 15.9315 21.953L-0.360273 -1.51835ZM-7.12599 5.47012C-9.90462 9.7562 -11.3883 14.531 -11.3936 19.7536L17.1778 19.7823C17.1777 19.8931 17.1579 20.1683 17.054 20.5128C16.952 20.8508 16.8372 21.0295 16.8482 21.0124L-7.12599 5.47012ZM-11.3936 19.7545L-11.3945 20.7512L17.1769 20.7782L17.1778 19.7814L-11.3936 19.7545ZM2.89118 6.47897H1.63643V35.0504H2.89118V6.47897ZM1.63643 6.47897C1.41497 6.47897 0.167308 6.46177 -0.971672 6.58337C-1.73025 6.66436 -3.21924 6.87136 -4.9519 7.56054C-6.87745 8.32645 -8.19037 9.32427 -8.79331 9.81196L9.17498 32.0261C8.66022 32.4425 7.42713 33.3853 5.60795 34.1089C3.98166 34.7558 2.6256 34.9331 2.06141 34.9934C1.7528 35.0263 1.51815 35.0395 1.40456 35.045C1.34162 35.0481 1.29362 35.0497 1.26466 35.0506C1.23542 35.0515 1.21804 35.0519 1.21574 35.0519C1.21486 35.0519 1.24449 35.0514 1.32333 35.051C1.40049 35.0506 1.50003 35.0504 1.63643 35.0504V6.47897ZM-8.78969 9.80904L-8.98053 9.9633L8.98053 32.1833L9.17137 32.029L-8.78969 9.80904ZM-8.98053 35.7353L-8.78969 35.8895L9.17137 13.6696L8.98053 13.5153L-8.98053 35.7353ZM-8.79208 35.8876C-5.00121 38.9532 -0.994178 39.2196 0.770234 39.2196V10.6482C1.21636 10.6482 2.49631 10.6664 4.10387 11.0947C5.9807 11.5947 7.70863 12.4867 9.17376 13.6715L-8.79208 35.8876ZM0.770234 39.2196H1.15879V10.6482H0.770234V39.2196ZM-13.1269 24.9339V30.782H15.4445V24.9339H-13.1269ZM-13.1269 30.782C-13.1269 33.5954 -13.1329 35.6888 -13.0667 36.9595C-13.0467 37.3422 -13.0071 37.9576 -12.9083 38.6619C-12.8237 39.2645 -12.6017 40.6734 -11.9346 42.3126C-11.1362 44.2743 -9.71067 46.5434 -7.30845 48.3836C-6.25375 49.1916 -5.29143 49.6976 -4.67149 49.9905C-4.3676 50.134 -4.1181 50.239 -3.97596 50.2974C-3.90254 50.3276 -3.84279 50.3515 -3.80844 50.3652C-3.79073 50.3722 -3.77617 50.378 -3.76776 50.3813C-3.76345 50.383 -3.7598 50.3844 -3.75774 50.3853C-3.75379 50.3868 -3.75617 50.3859 -3.75442 50.3866L6.73034 23.8084C6.26472 23.6248 8.21971 24.2876 10.0667 25.7025C12.4058 27.4944 13.7772 29.6948 14.5293 31.5427C15.1501 33.0681 15.3335 34.318 15.386 34.6916C15.4225 34.9523 15.4417 35.1526 15.4512 35.2643C15.4611 35.38 15.4651 35.4546 15.466 35.4722C15.4673 35.4969 15.4634 35.4269 15.4591 35.2001C15.455 34.9838 15.4517 34.6888 15.4493 34.2827C15.4445 33.4621 15.4445 32.3509 15.4445 30.782H-13.1269ZM-3.75429 50.3866C-2.29476 50.9624 -1.05597 51.1556 -0.931723 51.177C-0.533205 51.2456 -0.215364 51.2826 -0.0619694 51.2994C0.259984 51.3347 0.515014 51.3514 0.611018 51.3575C0.834894 51.3717 1.01912 51.3781 1.09064 51.3805C1.26479 51.3864 1.43546 51.3897 1.55442 51.3918C1.8141 51.3962 2.14522 51.3997 2.50916 51.4026C3.24997 51.4085 4.27722 51.4134 5.47956 51.4172C7.89136 51.4248 11.0833 51.4286 14.2676 51.4286C17.4519 51.4286 20.6439 51.4248 23.0557 51.4172C24.258 51.4134 25.2852 51.4085 26.0261 51.4026C26.39 51.3997 26.7211 51.3962 26.9808 51.3918C27.0998 51.3897 27.2704 51.3864 27.4446 51.3805C27.5161 51.3781 27.7003 51.3717 27.9242 51.3575C28.0202 51.3514 28.2752 51.3347 28.5972 51.2994C28.7506 51.2826 29.0684 51.2456 29.4669 51.177C29.5912 51.1556 30.83 50.9624 32.2895 50.3866L21.805 23.8084C23.2633 23.2331 24.5002 23.0403 24.6217 23.0194C25.0175 22.9513 25.3318 22.9148 25.481 22.8984C25.7945 22.864 26.038 22.8483 26.1196 22.8431C26.3145 22.8308 26.458 22.8261 26.4772 22.8255C26.5468 22.8231 26.5669 22.8232 26.4925 22.8245C26.3653 22.8267 26.1381 22.8293 25.7965 22.8321C25.1264 22.8375 24.1544 22.8421 22.9654 22.8459C20.5944 22.8534 17.4348 22.8571 14.2676 22.8571C11.1004 22.8571 7.94084 22.8534 5.56984 22.8459C4.38079 22.8421 3.40882 22.8375 2.73869 22.8321C2.39715 22.8293 2.16987 22.8267 2.04273 22.8245C1.96827 22.8232 1.98842 22.8231 2.05801 22.8255C2.07726 22.8261 2.22069 22.8308 2.41565 22.8431C2.4972 22.8483 2.74074 22.864 3.05422 22.8984C3.20337 22.9148 3.51773 22.9513 3.91353 23.0194C4.03505 23.0403 5.27188 23.2331 6.73021 23.8084L-3.75429 50.3866ZM32.2896 50.3866C32.2914 50.3859 32.289 50.3868 32.293 50.3853C32.295 50.3844 32.2987 50.383 32.303 50.3813C32.3114 50.378 32.3259 50.3722 32.3437 50.3652C32.378 50.3515 32.4378 50.3276 32.5112 50.2974C32.6533 50.239 32.9028 50.134 33.2067 49.9905C33.8266 49.6976 34.789 49.1916 35.8437 48.3836C38.2459 46.5434 39.6714 44.2743 40.4698 42.3126C41.1369 40.6734 41.3589 39.2645 41.4435 38.6619C41.5423 37.9577 41.5819 37.3422 41.6019 36.9595C41.6681 35.6888 41.6621 33.5954 41.6621 30.782H13.0907C13.0907 32.3509 13.0907 33.4621 13.0859 34.2827C13.0835 34.6888 13.0802 34.9838 13.0761 35.2001C13.0718 35.4269 13.0679 35.4969 13.0692 35.4722C13.0701 35.4546 13.0742 35.38 13.084 35.2643C13.0935 35.1526 13.1127 34.9523 13.1493 34.6916C13.2017 34.318 13.3851 33.0681 14.0059 31.5427C14.758 29.6948 16.1295 27.4944 18.4686 25.7025C20.3155 24.2876 22.2705 23.6248 21.8049 23.8084L32.2896 50.3866ZM41.6621 30.782V24.9339H13.0907V30.782H41.6621ZM27.3764 39.2196H27.7707V10.6482H27.3764V39.2196ZM27.7707 39.2196C28.2494 39.2196 30.0766 39.2285 32.2395 38.5782C34.874 37.7861 36.7186 36.44 37.8308 35.4566L18.9056 14.0519C19.8568 13.2108 21.5589 11.9546 24.013 11.2167C25.9955 10.6207 27.6044 10.6482 27.7707 10.6482V39.2196ZM37.832 35.4555L38.0353 35.2758L19.1076 13.8732L18.9044 14.053L37.832 35.4555ZM38.0353 10.4228L37.832 10.243L18.9044 31.6456L19.1076 31.8253L38.0353 10.4228ZM37.8303 10.2415C37.7829 10.1996 36.4891 8.98935 34.5559 8.03433C32.5322 7.03458 30.7291 6.72719 29.7462 6.60763C28.4587 6.45102 26.974 6.47897 26.8913 6.47897V35.0504C27.0474 35.0504 27.1586 35.0505 27.2481 35.0508C27.3394 35.0512 27.3712 35.0517 27.3694 35.0517C27.366 35.0516 27.3439 35.0512 27.3076 35.0501C27.2718 35.049 27.2116 35.0469 27.133 35.0429C26.9935 35.0359 26.6915 35.0181 26.2962 34.97C25.5025 34.8735 23.8234 34.6 21.9011 33.6504C20.9663 33.1886 20.2292 32.6934 19.6973 32.2923C19.4468 32.1034 19.2503 31.9416 19.1264 31.8371C19.0076 31.737 18.9195 31.659 18.9061 31.6472L37.8303 10.2415ZM26.8913 6.47897H25.6176V35.0504H26.8913V6.47897ZM39.8299 22.2111L39.8739 21.7791L11.4493 18.8863L11.4053 19.3183L39.8299 22.2111ZM39.8741 21.7773C40.0418 20.1271 39.921 18.5011 39.8795 17.9512C39.8181 17.1379 39.6985 15.9547 39.4708 14.7885L11.4289 20.2637C11.38 20.0131 11.3677 19.891 11.3743 19.9453C11.3776 19.9721 11.3838 20.0314 11.389 20.1C11.3947 20.1758 11.393 20.1809 11.3913 20.1071C11.3904 20.0684 11.3885 19.9624 11.3916 19.8041C11.3942 19.6738 11.4031 19.34 11.4491 18.8882L39.8741 21.7773ZM39.4708 14.7886C38.8166 11.4377 37.3924 8.09207 35.5933 5.35708L11.7233 21.0589C11.6561 20.9568 11.6196 20.89 11.6041 20.8604C11.5878 20.8294 11.5784 20.8084 11.5711 20.7908C11.564 20.7737 11.5486 20.7349 11.5273 20.6663C11.507 20.6008 11.4687 20.4673 11.4289 20.2636L39.4708 14.7886ZM35.5934 5.35718C34.5717 3.80393 33.334 2.45289 32.5478 1.64478C31.767 0.842134 30.4422 -0.442626 28.9033 -1.5123L12.5958 21.9481C12.3434 21.7726 12.1724 21.6368 12.0962 21.575C12.0119 21.5066 11.9656 21.4652 11.9582 21.4586C11.9486 21.45 11.993 21.4901 12.0681 21.5673C12.143 21.6443 12.1833 21.6913 12.1775 21.6845C12.1724 21.6784 12.1344 21.6335 12.0709 21.5508C12.0135 21.476 11.8868 21.3075 11.7232 21.0588L35.5934 5.35718ZM28.9032 -1.51239C25.4901 -3.8848 21.1283 -5.67196 16.5415 -6.0357L14.2828 22.4463C13.6089 22.3929 13.2175 22.2579 13.082 22.2068C12.9263 22.1481 12.777 22.0741 12.596 21.9482L28.9032 -1.51239ZM16.5397 -6.03584L15.9746 -6.08059L13.7194 22.4017L14.2846 22.4465L16.5397 -6.03584ZM29.1327 8.16056V7.5736H0.561288V8.16056H29.1327ZM29.1327 7.5736C29.1327 7.50359 29.1344 7.66249 29.1232 7.91146C29.1157 8.07865 29.0824 8.87984 28.8739 9.91309C28.6762 10.8928 28.1 13.2712 26.2317 15.6996C24.0672 18.5132 21.3588 19.8922 19.386 20.5328L10.5615 -6.64174C8.53539 -5.98379 5.78452 -4.57935 3.58625 -1.72193C1.68421 0.750446 1.08297 3.19109 0.866918 4.2618C0.640067 5.38604 0.595011 6.3069 0.580414 6.63272C0.562154 7.04032 0.561288 7.39679 0.561288 7.5736H29.1327ZM19.3902 20.5314C22.6991 19.4558 26.3066 17.1672 28.6619 13.3408C29.7903 11.5074 31.596 7.68291 30.7177 2.74877C29.6587 -3.2007 25.4446 -6.91585 21.4716 -8.46855L11.0714 18.1428C7.55499 16.7685 3.58396 13.3485 2.58844 7.75594C1.77366 3.17866 3.46331 -0.22734 4.3302 -1.63573C6.16231 -4.6123 8.66446 -6.02504 10.5573 -6.64035L19.3902 20.5314ZM21.4712 -8.46874C18.0049 -9.82329 13.7459 -9.9673 9.71319 -8.03717C7.07562 -6.77479 5.39164 -4.96045 5.13198 -4.69353L25.6117 15.229C25.5425 15.3002 25.2412 15.6092 24.7778 15.9937C24.3327 16.3631 23.4029 17.086 22.0479 17.7345C20.5712 18.4413 18.6336 19.0379 16.35 19.0815C14.1098 19.1243 12.292 18.6197 11.0719 18.1429L21.4712 -8.46874ZM5.13198 -4.69353C6.74066 -6.3472 9.50586 -8.17934 13.3149 -8.45482C17.2196 -8.73722 20.4472 -7.25132 22.5357 -5.48162L4.06517 16.3167C6.80863 18.6413 10.7568 20.3762 15.3759 20.0422C19.8994 19.715 23.3728 17.5305 25.6117 15.229L5.13198 -4.69353ZM22.5359 -5.48151C29.2323 0.192768 28.5053 11.3522 19.9503 15.6088L7.22281 -9.97127C-3.28044 -4.74534 -4.31568 9.21505 4.06504 16.3165L22.5359 -5.48151ZM19.9526 15.6076C19.6761 15.7452 19.1614 15.9883 18.4806 16.2255C17.7613 16.4761 17.0308 16.6602 16.3063 16.78C15.6253 16.8926 15.0784 16.9268 14.7591 16.9391C14.597 16.9453 14.4703 16.9466 14.393 16.9468C14.3155 16.947 14.2652 16.9461 14.2551 16.9459L14.8039 -11.6203C14.4543 -11.627 13.1674 -11.6604 11.6444 -11.4085C9.70914 -11.0885 8.21632 -10.4658 7.22048 -9.97011L19.9526 15.6076ZM14.2557 16.9459C14.6938 16.9543 15.6895 16.9645 16.8827 16.8037C18.0126 16.6514 20.4049 16.2157 22.9317 14.6039C29.6283 10.3321 29.7121 3.32955 29.7121 2.09063H1.14068C1.14068 1.55803 1.15578 -0.254093 1.94259 -2.4454C2.89645 -5.10194 4.75605 -7.69148 7.56611 -9.484C9.95899 -11.0104 12.1722 -11.3912 13.0661 -11.5117C14.0234 -11.6407 14.7265 -11.6218 14.8032 -11.6203L14.2557 16.9459ZM29.7121 2.09063C29.7121 -0.509429 28.9324 -6.32251 23.2999 -10.1857C19.4576 -12.8211 15.441 -12.8265 15.0221 -12.8428L13.9106 15.707C13.6923 15.6985 12.9525 15.6653 11.9703 15.4578C11.0092 15.2547 9.14049 14.7487 7.13932 13.3762C4.8942 11.8363 3.15597 9.6671 2.13951 7.15956C1.23597 4.93059 1.14068 3.02068 1.14068 2.09063H29.7121ZM15.0226 -12.8428C14.1387 -12.8772 11.7078 -12.9334 9.0239 -12.0338L18.1043 15.0563C17.3024 15.3251 16.6425 15.4622 16.2452 15.5331C15.8168 15.6097 15.4591 15.6504 15.1963 15.6735C14.6803 15.7188 14.2508 15.7203 13.9101 15.707L15.0226 -12.8428ZM11.2117 -4.64182C0.679563 -3.28542 -7.64907 4.79787 -9.69876 14.9553L18.3081 20.6069C18.1403 21.4384 17.7288 22.122 17.2029 22.6192C16.6767 23.1166 15.8875 23.5634 14.8612 23.6956L11.2117 -4.64182ZM-9.69899 14.9564C-9.9328 16.1156 -10.0541 17.2731 -10.116 18.0715C-10.1544 18.5669 -10.2877 20.2454 -10.0912 21.981L18.2989 18.7666C18.3557 19.2684 18.368 19.6447 18.3718 19.7997C18.3764 19.9855 18.3744 20.1165 18.3732 20.1752C18.3707 20.2892 18.3667 20.3224 18.3701 20.2785C18.3728 20.2429 18.376 20.2153 18.3758 20.2168C18.3754 20.2203 18.3718 20.249 18.3635 20.3016C18.356 20.3499 18.3387 20.4554 18.3084 20.6057L-9.69899 14.9564ZM-10.0912 21.9809L-10.0469 22.3718L18.3431 19.1576L18.2989 18.7668L-10.0912 21.9809ZM38.578 22.4882L38.6279 22.0776L10.2651 18.6305L10.2152 19.0411L38.578 22.4882ZM38.6278 22.0783C38.9539 19.3958 38.5671 16.7162 38.3086 15.3245L10.2174 20.5409C10.2113 20.5079 10.2051 20.4742 10.1977 20.3761C10.1935 20.3214 10.1839 20.1783 10.1828 19.9577C10.1819 19.7817 10.184 19.2976 10.2652 18.6299L38.6278 22.0783ZM38.3086 15.3242C36.5057 5.6165 29.0513 -2.25198 19.204 -4.31491L13.3457 23.6495C11.6055 23.2849 10.4824 21.9675 10.2175 20.5412L38.3086 15.3242ZM19.2039 -4.31494C16.8695 -4.80394 13.6945 -4.96164 11.2113 -4.64178L14.8616 23.6955C14.5971 23.7296 14.4 23.7446 14.2929 23.7515C14.1787 23.7589 14.1012 23.7611 14.065 23.7618C13.999 23.7632 13.9911 23.7614 14.0256 23.7629C14.0592 23.7644 14.0601 23.7658 14.0114 23.7606C13.9974 23.7591 13.7508 23.7343 13.3458 23.6495L19.2039 -4.31494ZM25.2941 32.7385L25.2992 31.5659L-3.272 31.4424L-3.27707 32.615L25.2941 32.7385ZM25.2992 31.5667C25.2995 31.4843 25.3006 31.4073 25.3019 31.3427C25.3026 31.3109 25.3033 31.2851 25.3039 31.2659C25.3045 31.2463 25.3049 31.2375 25.3048 31.2392C25.3048 31.2396 25.3039 31.2607 25.3017 31.2993C25.2997 31.333 25.2948 31.415 25.2852 31.5304C25.2781 31.6167 25.256 31.8754 25.2085 32.2185C25.1852 32.3868 25.1377 32.7085 25.0545 33.1121C25.0119 33.3187 24.9452 33.6196 24.847 33.9795C24.7568 34.3096 24.5875 34.8859 24.3061 35.5795L-2.17034 24.8407C-2.6677 26.0669 -2.87582 27.0879 -2.92882 27.3451C-3.01532 27.7648 -3.06613 28.1065 -3.0927 28.2983C-3.14676 28.6886 -3.17517 29.0088 -3.18847 29.1692C-3.21742 29.5184 -3.23281 29.8339 -3.24152 30.0414C-3.26031 30.4893 -3.26997 30.9786 -3.272 31.4416L25.2992 31.5667ZM24.3077 35.5757C23.8586 36.6839 23.368 37.4765 23.2445 37.6767C23.0457 37.9991 22.8771 38.2422 22.7906 38.3648C22.615 38.6137 22.4814 38.7836 22.4534 38.8192C22.3816 38.9105 22.3699 38.9212 22.4611 38.8136C22.6225 38.6231 22.8871 38.3201 23.1917 37.9806C23.4981 37.6391 23.7608 37.3542 23.9152 37.192C24.0086 37.0937 23.9716 37.136 23.8513 37.2524C23.8111 37.2912 23.5891 37.5068 23.2654 37.7809C23.1176 37.9061 22.753 38.2107 22.2511 38.5613C21.9989 38.7375 21.5582 39.0337 20.979 39.3529C20.5199 39.6059 19.3261 40.2406 17.6636 40.6696L10.5234 13.0048C7.7818 13.7124 5.91664 15.1197 5.88953 15.1386C5.36733 15.5034 4.97775 15.8277 4.80051 15.9778C4.41802 16.3018 4.11953 16.588 3.98789 16.7153C3.68454 17.0087 3.40417 17.2997 3.21442 17.4992C2.80232 17.9324 2.33918 18.4387 1.92347 18.9021C1.50599 19.3675 1.0524 19.8832 0.662824 20.343C0.478497 20.5605 0.233046 20.8543 -0.0102352 21.1638C-0.12394 21.3085 -0.327783 21.5713 -0.555454 21.894C-0.667963 22.0535 -0.858066 22.3287 -1.07359 22.6782C-1.21373 22.9054 -1.71612 23.7199 -2.17191 24.8446L24.3077 35.5757ZM17.6644 40.6694C16.1646 41.0566 14.9389 41.1044 14.2676 41.1044C13.5964 41.1044 12.3706 41.0566 10.8708 40.6694L18.0126 13.005C16.4171 12.5931 15.0651 12.533 14.2676 12.533C13.4701 12.533 12.1181 12.5931 10.5226 13.005L17.6644 40.6694ZM10.8716 40.6696C9.2091 40.2406 8.01532 39.6059 7.55625 39.3529C6.97701 39.0337 6.53628 38.7375 6.28409 38.5613C5.78217 38.2107 5.4176 37.9061 5.26977 37.7809C4.9461 37.5068 4.72407 37.2912 4.68394 37.2524C4.56364 37.136 4.5266 37.0937 4.62007 37.192C4.77439 37.3542 5.03716 37.6391 5.34351 37.9806C5.64809 38.3201 5.91272 38.6231 6.07415 38.8136C6.16533 38.9212 6.15359 38.9105 6.08179 38.8192C6.05383 38.7836 5.92018 38.6137 5.74459 38.3648C5.65812 38.2422 5.48953 37.9991 5.29068 37.6767C5.16721 37.4765 4.67664 36.6839 4.22751 35.5757L30.7071 24.8446C30.2513 23.7199 29.7489 22.9054 29.6088 22.6782C29.3933 22.3287 29.2032 22.0535 29.0907 21.894C28.863 21.5713 28.6592 21.3085 28.5454 21.1638C28.3022 20.8543 28.0567 20.5605 27.8724 20.343C27.4828 19.8832 27.0292 19.3675 26.6117 18.9021C26.196 18.4387 25.7329 17.9324 25.3208 17.4992C25.131 17.2997 24.8507 17.0087 24.5473 16.7153C24.4157 16.588 24.1172 16.3018 23.7347 15.9778C23.5575 15.8277 23.1679 15.5034 22.6457 15.1386C22.6186 15.1197 20.7534 13.7124 18.0119 13.0048L10.8716 40.6696ZM4.22908 35.5795C3.94772 34.8859 3.77838 34.3096 3.68826 33.9795C3.59005 33.6196 3.52327 33.3187 3.48068 33.1121C3.39752 32.7085 3.35002 32.3868 3.3267 32.2185C3.27918 31.8754 3.25714 31.6167 3.24999 31.5304C3.24041 31.415 3.23547 31.333 3.23353 31.2993C3.23131 31.2607 3.23043 31.2396 3.23042 31.2392C3.23035 31.2375 3.23072 31.2463 3.23132 31.2659C3.23191 31.2851 3.2326 31.3109 3.23327 31.3427C3.23465 31.4073 3.2357 31.4843 3.23606 31.5667L31.8072 31.4416C31.8052 30.9786 31.7955 30.4893 31.7767 30.0414C31.768 29.8339 31.7526 29.5184 31.7237 29.1692C31.7104 29.0088 31.682 28.6886 31.6279 28.2983C31.6013 28.1065 31.5505 27.7648 31.464 27.3451C31.411 27.0879 31.2029 26.0669 30.7056 24.8407L4.22908 35.5795ZM3.23605 31.5659L3.24112 32.7385L31.8123 32.615L31.8072 31.4424L3.23605 31.5659ZM2.47541 20.1485L1.49066 21.2734L22.9888 40.0925L23.9735 38.9675L2.47541 20.1485ZM27.0446 21.2734L26.0598 20.1485L4.56167 38.9675L5.54642 40.0925L27.0446 21.2734ZM26.0591 20.1477C25.7253 19.7664 25.3788 19.3796 25.0735 19.0503C24.9362 18.9022 24.7211 18.6725 24.4827 18.4335C24.3887 18.3393 24.1245 18.0753 23.7808 17.7703C23.6405 17.6458 23.2246 17.2788 22.6538 16.8657C22.3883 16.6736 21.7837 16.247 20.9544 15.8081C20.6949 15.6708 18.0205 14.1473 14.2676 14.1473V42.7188C12.092 42.7188 10.4252 42.2187 9.61784 41.9406C8.70871 41.6275 8.00907 41.283 7.5894 41.0609C6.76378 40.624 6.16364 40.2003 5.90349 40.0121C5.34337 39.6067 4.94139 39.2512 4.818 39.1417C4.50823 38.8669 4.29027 38.6473 4.25327 38.6102C4.1288 38.4854 4.07089 38.4209 4.12264 38.4768C4.19547 38.5553 4.35456 38.731 4.56236 38.9683L26.0591 20.1477ZM14.2676 14.1473C10.5147 14.1473 7.84036 15.6708 7.58084 15.8081C6.75152 16.247 6.14686 16.6736 5.88137 16.8657C5.31059 17.2788 4.89471 17.6458 4.75436 17.7703C4.41066 18.0753 4.14653 18.3393 4.05255 18.4335C3.81412 18.6726 3.599 18.9022 3.46169 19.0503C3.1564 19.3796 2.80996 19.7664 2.4761 20.1477L23.9729 38.9683C24.1807 38.731 24.3397 38.5553 24.4126 38.4767C24.4643 38.4209 24.4064 38.4854 24.282 38.6102C24.245 38.6473 24.027 38.8669 23.7172 39.1417C23.5938 39.2512 23.1919 39.6067 22.6317 40.0121C22.3716 40.2003 21.7714 40.624 20.9458 41.0609C20.5261 41.283 19.8265 41.6275 18.9174 41.9406C18.11 42.2187 16.4432 42.7188 14.2676 42.7188V14.1473ZM-0.625004 7.46496L-0.583287 8.65899L27.9707 7.66138L27.929 6.46735L-0.625004 7.46496ZM-14.2857 21.0733V24.6253H14.2857V21.0733H-14.2857ZM42.8571 24.5745V21.1241H14.2857V24.5745H42.8571ZM4.14811 35.0504H24.3966V6.47897H4.14811V35.0504ZM-13.1269 22.0303V23.6682H15.4445V22.0303H-13.1269ZM1.15879 37.954H27.3764V9.38253H1.15879V37.954ZM41.6621 23.6682V22.0303H13.0907V23.6682H41.6621ZM27.3764 7.74463H1.15879V36.3161H27.3764V7.74463ZM-11.8957 24.9339V32.6767H16.6757V24.9339H-11.8957ZM2.39001 46.9624H11.0085V18.391H2.39001V46.9624ZM17.5267 46.9624H26.1452V18.391H17.5267V46.9624ZM40.4309 32.6767V24.9339H11.8595V32.6767H40.4309ZM26.1452 10.6482H2.39001V39.2196H26.1452V10.6482ZM-2.04599 30.6829V35.9525H26.5254V30.6829H-2.04599ZM12.2397 50.2383H16.2955V21.6668H12.2397V50.2383ZM30.5812 35.9525V30.6829H2.00978V35.9525H30.5812ZM-11.8957 33.9424V35.9525H16.6757V33.9424H-11.8957ZM2.39001 50.2383H11.0085V21.6668H2.39001V50.2383ZM25.2942 35.9525V33.9424H-3.27721V35.9525H25.2942ZM11.0085 19.6567H2.39001V48.2281H11.0085V19.6567ZM3.24099 33.9424V35.9525H31.8124V33.9424H3.24099ZM17.5267 50.2383H26.1452V21.6668H17.5267V50.2383ZM40.4309 35.9525V33.9424H11.8595V35.9525H40.4309ZM26.1452 19.6567H17.5267V48.2281H26.1452V19.6567Z" fill="#F5F6F8" mask="url(#path-1-inside-1_5_365)"/>
<path d="M40.3588 36.1429V21.539H44.3188L48.174 32.1409H47.6921L51.5264 21.539H55.4864V36.1429H52.7836V24.7029L53.035 24.7448L49.2426 34.8648H46.6236L42.8312 24.7448L43.0616 24.7029V36.1429H40.3588ZM64.7986 36.1429L64.5891 34.5924V29.6267C64.5891 29.0121 64.3935 28.5581 64.0024 28.2648C63.6253 27.9575 63.1084 27.8038 62.4519 27.8038C61.9072 27.8038 61.3484 27.9156 60.7757 28.139C60.217 28.3486 59.7211 28.6489 59.2881 29.04L57.9681 27.259C58.6945 26.6724 59.4348 26.2533 60.1891 26.0019C60.9573 25.7365 61.7815 25.6038 62.6615 25.6038C64.0862 25.6038 65.1967 25.96 65.9929 26.6724C66.7891 27.3848 67.1872 28.3695 67.1872 29.6267V36.1429H64.7986ZM61.6767 36.3524C60.9224 36.3524 60.2449 36.2127 59.6443 35.9333C59.0576 35.654 58.5897 35.2559 58.2405 34.739C57.9053 34.2222 57.7376 33.6286 57.7376 32.9581C57.7376 32.3575 57.8564 31.8476 58.0938 31.4286C58.3453 30.9956 58.6735 30.6673 59.0786 30.4438C59.4278 30.2343 59.8119 30.0876 60.231 30.0038C60.664 29.92 61.1249 29.8781 61.6138 29.8781H64.8195V31.8057H61.991C61.7675 31.8057 61.544 31.8267 61.3205 31.8686C61.111 31.8965 60.9294 31.9733 60.7757 32.099C60.6361 32.1968 60.5313 32.3225 60.4615 32.4762C60.3916 32.6159 60.3567 32.7765 60.3567 32.9581C60.3567 33.3492 60.5103 33.6635 60.8176 33.9009C61.1249 34.1384 61.537 34.2571 62.0538 34.2571C62.5148 34.2571 62.9338 34.1594 63.311 33.9638C63.7021 33.7543 64.0094 33.4749 64.2329 33.1257C64.4703 32.7625 64.5891 32.3505 64.5891 31.8895L65.2805 33.2724C65.0989 33.9987 64.8195 34.5924 64.4424 35.0533C64.0792 35.5003 63.6602 35.8286 63.1853 36.0381C62.7103 36.2476 62.2075 36.3524 61.6767 36.3524ZM73.1984 36.3524C72.4301 36.3524 71.7596 36.2406 71.1869 36.0171C70.6142 35.7936 70.1254 35.5143 69.7203 35.179C69.3292 34.8438 69.0149 34.5225 68.7774 34.2152L70.5584 32.6648C70.7958 33.0559 71.1311 33.419 71.5641 33.7543C72.0111 34.0756 72.5628 34.2362 73.2193 34.2362C73.7361 34.2362 74.1342 34.1384 74.4136 33.9429C74.7069 33.7333 74.8536 33.4749 74.8536 33.1676C74.8536 32.9162 74.7628 32.7136 74.5812 32.56C74.3996 32.3924 74.1552 32.2597 73.8479 32.1619C73.5406 32.0502 73.1984 31.9454 72.8212 31.8476C72.4301 31.7359 72.025 31.6102 71.606 31.4705C71.1869 31.3308 70.8028 31.1492 70.4536 30.9257C70.1044 30.6882 69.8181 30.3879 69.5946 30.0248C69.385 29.6616 69.2803 29.2076 69.2803 28.6629C69.2803 27.7549 69.6365 27.0216 70.3488 26.4629C71.0612 25.8902 72.0041 25.6038 73.1774 25.6038C74.0015 25.6038 74.7488 25.7714 75.4193 26.1067C76.0898 26.4279 76.6206 26.8959 77.0117 27.5105L75.3984 28.7886C75.1469 28.3835 74.8117 28.0832 74.3927 27.8876C73.9876 27.6781 73.5546 27.5733 73.0936 27.5733C72.6885 27.5733 72.3533 27.6502 72.0879 27.8038C71.8365 27.9575 71.7108 28.167 71.7108 28.4324C71.7108 28.614 71.7666 28.7676 71.8784 28.8933C72.0041 29.019 72.1996 29.1308 72.465 29.2286C72.7444 29.3124 73.1076 29.4102 73.5546 29.5219C73.9736 29.6197 74.4066 29.7384 74.8536 29.8781C75.3006 30.0178 75.7196 30.2063 76.1108 30.4438C76.5019 30.6813 76.8162 30.9956 77.0536 31.3867C77.2911 31.7778 77.4098 32.2736 77.4098 32.8743C77.4098 33.5587 77.2352 34.1663 76.886 34.6971C76.5368 35.214 76.0479 35.619 75.4193 35.9124C74.7908 36.2057 74.0504 36.3524 73.1984 36.3524ZM79.5402 40.6267C79.2609 40.6267 78.9605 40.5987 78.6393 40.5429C78.318 40.487 78.0037 40.4102 77.6964 40.3124V38.0495C77.878 38.1054 78.0456 38.1403 78.1993 38.1543C78.3529 38.1822 78.4856 38.1962 78.5974 38.1962C78.8767 38.1962 79.0932 38.1263 79.2469 37.9867C79.4005 37.8609 79.4774 37.6025 79.4774 37.2114V25.8133H82.0755V37.9238C82.0755 38.8457 81.845 39.5232 81.384 39.9562C80.9231 40.4032 80.3085 40.6267 79.5402 40.6267ZM79.4145 24.2209V21.539H82.2012V24.2209H79.4145ZM84.6132 36.1429V25.8133H87.2113V36.1429H84.6132ZM84.5294 24.2209V21.539H87.316V24.2209H84.5294ZM93.688 36.3524C92.7801 36.3524 91.9978 36.1219 91.3413 35.6609C90.6848 35.186 90.175 34.5435 89.8118 33.7333C89.4626 32.9092 89.288 31.9873 89.288 30.9676C89.288 29.8362 89.4836 28.8724 89.8747 28.0762C90.2797 27.28 90.8175 26.6724 91.488 26.2533C92.1585 25.8203 92.8918 25.6038 93.688 25.6038C94.2467 25.6038 94.7636 25.7225 95.2385 25.96C95.7274 26.1835 96.1464 26.5257 96.4956 26.9867C96.8448 27.4476 97.0753 28.0343 97.187 28.7467L96.6632 28.6V21.539H99.2404V36.1429H96.6632V33.3771L97.2709 33.0838C97.1032 33.894 96.8309 34.5435 96.4537 35.0324C96.0905 35.5073 95.6645 35.8495 95.1756 36.059C94.7007 36.2546 94.2048 36.3524 93.688 36.3524ZM94.4004 33.9638C94.9172 33.9638 95.3572 33.8381 95.7204 33.5867C96.0975 33.3352 96.3839 32.986 96.5794 32.539C96.789 32.0921 96.8937 31.5682 96.8937 30.9676C96.8937 30.367 96.789 29.8432 96.5794 29.3962C96.3839 28.9492 96.0975 28.607 95.7204 28.3695C95.3572 28.1181 94.9172 27.9924 94.4004 27.9924C93.8975 27.9924 93.4575 28.1181 93.0804 28.3695C92.7032 28.607 92.4099 28.9492 92.2004 29.3962C92.0048 29.8292 91.907 30.353 91.907 30.9676C91.907 31.5822 92.0048 32.113 92.2004 32.56C92.4099 33.007 92.7032 33.3562 93.0804 33.6076C93.4575 33.8451 93.8975 33.9638 94.4004 33.9638ZM106.133 36.1429L112 21.539H114.032L119.899 36.1429H116.945L113.048 25.5409L109.088 36.1429H106.133ZM109.989 33.2933L110.827 30.8629H115.227L116.107 33.2933H109.989ZM123.628 36.3524C122.916 36.3524 122.329 36.1359 121.868 35.7029C121.408 35.2698 121.177 34.5854 121.177 33.6495V21.539H123.754V33.1467C123.754 33.44 123.824 33.6495 123.964 33.7752C124.103 33.887 124.285 33.9429 124.508 33.9429C124.62 33.9429 124.739 33.9359 124.865 33.9219C124.99 33.894 125.123 33.859 125.263 33.8171V36.0381C124.969 36.1498 124.676 36.2267 124.383 36.2686C124.103 36.3244 123.852 36.3524 123.628 36.3524ZM126.61 30.9257V28.9771H131.807V30.9257H126.61ZM136.189 31.7429V28.3067L142.6 21.539H146.246L136.189 31.7429ZM134.031 36.1429V21.539H136.734V36.1429H134.031ZM143.082 36.1429L138.473 28.7886L140.484 26.9029L146.288 36.1429H143.082ZM154.296 36.1429L154.087 34.5924V29.6267C154.087 29.0121 153.891 28.5581 153.5 28.2648C153.123 27.9575 152.606 27.8038 151.95 27.8038C151.405 27.8038 150.846 27.9156 150.274 28.139C149.715 28.3486 149.219 28.6489 148.786 29.04L147.466 27.259C148.192 26.6724 148.933 26.2533 149.687 26.0019C150.455 25.7365 151.279 25.6038 152.159 25.6038C153.584 25.6038 154.694 25.96 155.491 26.6724C156.287 27.3848 156.685 28.3695 156.685 29.6267V36.1429H154.296ZM151.174 36.3524C150.42 36.3524 149.743 36.2127 149.142 35.9333C148.555 35.654 148.087 35.2559 147.738 34.739C147.403 34.2222 147.235 33.6286 147.235 32.9581C147.235 32.3575 147.354 31.8476 147.592 31.4286C147.843 30.9956 148.171 30.6673 148.576 30.4438C148.926 30.2343 149.31 30.0876 149.729 30.0038C150.162 29.92 150.623 29.8781 151.112 29.8781H154.317V31.8057H151.489C151.265 31.8057 151.042 31.8267 150.818 31.8686C150.609 31.8965 150.427 31.9733 150.274 32.099C150.134 32.1968 150.029 32.3225 149.959 32.4762C149.889 32.6159 149.854 32.7765 149.854 32.9581C149.854 33.3492 150.008 33.6635 150.315 33.9009C150.623 34.1384 151.035 34.2571 151.552 34.2571C152.013 34.2571 152.432 34.1594 152.809 33.9638C153.2 33.7543 153.507 33.4749 153.731 33.1257C153.968 32.7625 154.087 32.3505 154.087 31.8895L154.778 33.2724C154.597 33.9987 154.317 34.5924 153.94 35.0533C153.577 35.5003 153.158 35.8286 152.683 36.0381C152.208 36.2476 151.705 36.3524 151.174 36.3524ZM159.113 36.1429V25.8133H161.732V28.16L161.313 28.2019C161.495 27.5733 161.76 27.0705 162.109 26.6933C162.459 26.3162 162.864 26.0438 163.325 25.8762C163.786 25.6946 164.261 25.6038 164.749 25.6038C165.923 25.6038 166.838 25.939 167.494 26.6095C168.165 27.266 168.5 28.1949 168.5 29.3962V36.1429H165.881V30.36C165.881 29.494 165.727 28.8654 165.42 28.4743C165.113 28.0692 164.631 27.8667 163.974 27.8667C163.471 27.8667 163.052 27.9854 162.717 28.2229C162.396 28.4463 162.151 28.8025 161.984 29.2914C161.816 29.7803 161.732 30.4159 161.732 31.1981V36.1429H159.113ZM174.858 36.3524C173.95 36.3524 173.168 36.1219 172.511 35.6609C171.855 35.186 171.345 34.5435 170.982 33.7333C170.633 32.9092 170.458 31.9873 170.458 30.9676C170.458 29.8362 170.654 28.8724 171.045 28.0762C171.45 27.28 171.988 26.6724 172.658 26.2533C173.328 25.8203 174.062 25.6038 174.858 25.6038C175.417 25.6038 175.934 25.7225 176.408 25.96C176.897 26.1835 177.316 26.5257 177.666 26.9867C178.015 27.4476 178.245 28.0343 178.357 28.7467L177.833 28.6V21.539H180.41V36.1429H177.833V33.3771L178.441 33.0838C178.273 33.894 178.001 34.5435 177.624 35.0324C177.261 35.5073 176.835 35.8495 176.346 36.059C175.871 36.2546 175.375 36.3524 174.858 36.3524ZM175.57 33.9638C176.087 33.9638 176.527 33.8381 176.89 33.5867C177.268 33.3352 177.554 32.986 177.749 32.539C177.959 32.0921 178.064 31.5682 178.064 30.9676C178.064 30.367 177.959 29.8432 177.749 29.3962C177.554 28.9492 177.268 28.607 176.89 28.3695C176.527 28.1181 176.087 27.9924 175.57 27.9924C175.068 27.9924 174.628 28.1181 174.25 28.3695C173.873 28.607 173.58 28.9492 173.37 29.3962C173.175 29.8292 173.077 30.353 173.077 30.9676C173.077 31.5822 173.175 32.113 173.37 32.56C173.58 33.007 173.873 33.3562 174.25 33.6076C174.628 33.8451 175.068 33.9638 175.57 33.9638ZM189.592 36.1429L189.383 34.5924V29.6267C189.383 29.0121 189.187 28.5581 188.796 28.2648C188.419 27.9575 187.902 27.8038 187.245 27.8038C186.701 27.8038 186.142 27.9156 185.569 28.139C185.011 28.3486 184.515 28.6489 184.082 29.04L182.762 27.259C183.488 26.6724 184.228 26.2533 184.983 26.0019C185.751 25.7365 186.575 25.6038 187.455 25.6038C188.88 25.6038 189.99 25.96 190.786 26.6724C191.583 27.3848 191.981 28.3695 191.981 29.6267V36.1429H189.592ZM186.47 36.3524C185.716 36.3524 185.038 36.2127 184.438 35.9333C183.851 35.654 183.383 35.2559 183.034 34.739C182.699 34.2222 182.531 33.6286 182.531 32.9581C182.531 32.3575 182.65 31.8476 182.887 31.4286C183.139 30.9956 183.467 30.6673 183.872 30.4438C184.221 30.2343 184.605 30.0876 185.024 30.0038C185.458 29.92 185.918 29.8781 186.407 29.8781H189.613V31.8057H186.784C186.561 31.8057 186.338 31.8267 186.114 31.8686C185.904 31.8965 185.723 31.9733 185.569 32.099C185.43 32.1968 185.325 32.3225 185.255 32.4762C185.185 32.6159 185.15 32.7765 185.15 32.9581C185.15 33.3492 185.304 33.6635 185.611 33.9009C185.918 34.1384 186.331 34.2571 186.847 34.2571C187.308 34.2571 187.727 34.1594 188.104 33.9638C188.496 33.7543 188.803 33.4749 189.026 33.1257C189.264 32.7625 189.383 32.3505 189.383 31.8895L190.074 33.2724C189.892 33.9987 189.613 34.5924 189.236 35.0533C188.873 35.5003 188.454 35.8286 187.979 36.0381C187.504 36.2476 187.001 36.3524 186.47 36.3524ZM194.409 36.1429V25.8133H197.028V28.6209L196.63 28.6629C196.672 28.0622 196.853 27.5314 197.175 27.0705C197.496 26.6095 197.887 26.2533 198.348 26.0019C198.823 25.7365 199.305 25.6038 199.794 25.6038C200.143 25.6038 200.471 25.6527 200.779 25.7505C201.1 25.8343 201.428 25.9809 201.763 26.1905L200.506 28.5371C200.353 28.4533 200.157 28.3765 199.92 28.3067C199.682 28.2368 199.445 28.2019 199.207 28.2019C198.928 28.2019 198.655 28.2508 198.39 28.3486C198.139 28.4463 197.908 28.6 197.699 28.8095C197.503 29.019 197.342 29.2984 197.217 29.6476C197.161 29.8432 197.112 30.0946 197.07 30.4019C197.042 30.6952 197.028 31.1282 197.028 31.7009V36.1429H194.409ZM203.309 36.1429V25.8133H205.907V36.1429H203.309ZM203.225 24.2209V21.539H206.012V24.2209H203.225Z" fill="white"/>
<path d="M50.762 8.22182C50.8504 8.30552 50.8945 8.40086 50.8945 8.50781C50.8945 8.62407 50.8504 8.72638 50.762 8.81473C50.6783 8.89844 50.5783 8.94029 50.4621 8.94029C50.3551 8.94029 50.2598 8.89611 50.1761 8.80776C50.1342 8.77055 50.0784 8.75195 50.0086 8.75195C49.7761 8.75195 49.4646 8.92169 49.0739 9.26116C48.6833 9.59598 48.488 9.85407 48.488 10.0354C48.488 10.068 48.4973 10.0936 48.5159 10.1122C48.595 10.2145 48.8112 10.2982 49.1646 10.3633C49.5785 10.433 49.8622 10.5121 50.0156 10.6004C50.2993 10.7586 50.4411 11.019 50.4411 11.3817C50.4411 11.7165 50.2412 12.0746 49.8412 12.4559C49.5436 12.7442 49.1972 12.993 48.8019 13.2023C47.5463 13.8673 46.1047 14.1998 44.4771 14.1998C43.3192 14.1998 42.3822 14.037 41.666 13.7115C40.7964 13.3116 40.3616 12.7047 40.3616 11.8909C40.3616 10.9236 41.0615 10.1726 42.4612 9.63783C43.5075 9.24256 44.5957 9.04492 45.7257 9.04492H45.8025C46.393 9.04957 46.6883 9.12165 46.6883 9.26116C46.6883 9.40067 46.414 9.49833 45.8652 9.55413C44.8933 9.65179 43.9912 9.84477 43.1588 10.1331C41.852 10.5888 41.1987 11.1748 41.1987 11.8909C41.1987 12.8721 42.2915 13.3627 44.4771 13.3627C45.3235 13.3627 46.1977 13.2348 47.0999 12.9791C48.202 12.6675 48.974 12.242 49.4157 11.7026C49.532 11.5631 49.5901 11.4468 49.5901 11.3538C49.5901 11.2561 49.4227 11.1724 49.0879 11.1027C48.6089 11.0097 48.295 10.9306 48.1462 10.8655C47.8067 10.7167 47.637 10.4958 47.637 10.2028C47.637 10.0261 47.6998 9.81687 47.8253 9.57506C48.016 9.20303 48.3206 8.84728 48.7391 8.50781C49.2181 8.11719 49.6576 7.92187 50.0575 7.92187C50.3318 7.92187 50.5667 8.02186 50.762 8.22182ZM46.0954 16.2436C45.7048 16.411 45.2351 16.4947 44.6864 16.4947C44.1888 16.4947 43.94 16.3901 43.94 16.1808C43.94 16.032 44.1516 15.925 44.5748 15.8599C44.8631 15.8181 45.2607 15.6902 45.7676 15.4763C45.828 15.4484 45.8885 15.4344 45.9489 15.4344C46.2187 15.4344 46.3535 15.5809 46.3535 15.8739C46.3535 16.0506 46.2675 16.1738 46.0954 16.2436ZM55.1007 11.291C55.1007 11.4491 55.0217 11.6514 54.8636 11.8979C54.645 12.242 54.3195 12.5605 53.887 12.8535C53.6033 13.0488 53.2127 13.2279 52.7151 13.3906C51.7711 13.7068 51.0154 13.865 50.4481 13.865C50.0947 13.865 49.918 13.7813 49.918 13.6138C49.918 13.558 49.9552 13.5092 50.0296 13.4674C50.1458 13.4023 50.5248 13.2674 51.1666 13.0628C52.8686 12.5233 53.8591 11.9769 54.1381 11.4235C54.352 10.9957 54.5148 10.7818 54.6264 10.7818C54.7008 10.7818 54.7985 10.8376 54.9194 10.9492C55.0403 11.0608 55.1007 11.1748 55.1007 11.291ZM61.26 12.7559C60.6927 12.7559 60.2928 12.5791 60.0603 12.2257C60.037 12.1932 59.9882 12.0792 59.9138 11.8839C59.8626 11.7491 59.8092 11.6816 59.7533 11.6816C59.6882 11.6816 59.6092 11.7467 59.5162 11.877C59.3395 12.1374 59.0651 12.4699 58.6931 12.8744C58.2141 13.2139 57.2445 13.3836 55.7843 13.3836C55.4448 13.3836 55.2751 13.3069 55.2751 13.1535C55.2751 12.9953 55.4518 12.8791 55.8052 12.8047C56.1959 12.7489 56.5842 12.6931 56.9701 12.6373C57.6537 12.5024 58.1304 12.3025 58.4001 12.0374C58.6094 11.7677 58.8186 11.5003 59.0279 11.2352C59.3302 10.8678 59.5906 10.6842 59.8092 10.6842C60.0649 10.6842 60.2881 10.8911 60.4788 11.305C60.6695 11.7142 60.9299 11.9188 61.26 11.9188C61.5391 11.9188 61.6786 12.0583 61.6786 12.3373C61.6786 12.6164 61.5391 12.7559 61.26 12.7559ZM64.4408 12.7559C63.8503 12.7559 63.4248 12.5489 63.1643 12.135C62.5877 12.5489 61.9971 12.7559 61.3926 12.7559C61.1136 12.7559 60.974 12.6164 60.974 12.3373C60.974 12.0583 61.1136 11.9188 61.3926 11.9188C62.025 11.9188 62.6156 11.6189 63.1643 11.019C63.2759 10.8934 63.3992 10.8306 63.534 10.8306C63.7805 10.8306 63.9037 10.9632 63.9037 11.2282C63.9037 11.2701 63.8944 11.3236 63.8758 11.3887C63.8572 11.4491 63.8479 11.4956 63.8479 11.5282C63.8479 11.7886 64.0456 11.9188 64.4408 11.9188C64.7199 11.9188 64.8594 12.0583 64.8594 12.3373C64.8594 12.6164 64.7199 12.7559 64.4408 12.7559ZM63.6108 8.57059L63.3736 8.95424C63.2899 9.0891 63.176 9.15653 63.0318 9.15653C62.9155 9.15653 62.8132 9.117 62.7249 9.03795C62.6365 8.95424 62.5924 8.85426 62.5924 8.738C62.5924 8.6636 62.6156 8.58687 62.6621 8.50781L62.8993 8.12416C62.983 7.9893 63.0969 7.92187 63.2411 7.92187C63.3573 7.92187 63.4596 7.96373 63.548 8.04743C63.6363 8.12649 63.6805 8.22414 63.6805 8.3404C63.6805 8.41481 63.6573 8.49154 63.6108 8.57059ZM72.4417 3.74358C71.5349 4.99916 70.3537 5.87574 68.8982 6.37333C68.7959 6.41518 68.7052 6.4361 68.6261 6.4361C68.5006 6.4361 68.4378 6.38728 68.4378 6.28962C68.4378 6.16871 68.5354 6.04548 68.7307 5.91992C70.0886 5.06892 71.107 4.19931 71.786 3.3111C71.879 3.18555 71.9953 3.12277 72.1348 3.12277C72.3998 3.12277 72.5324 3.246 72.5324 3.49247C72.5324 3.57617 72.5021 3.65988 72.4417 3.74358ZM69.5259 12.728C68.7586 12.728 68.3285 12.4234 68.2355 11.8142C68.1332 11.1585 67.9704 9.65179 67.7472 7.29408V7.23131C67.7472 6.97089 67.889 6.84068 68.1727 6.84068C68.4238 6.84068 68.561 6.96856 68.5843 7.22433C68.6773 8.13114 68.8377 9.61923 69.0656 11.6886C69.0842 11.8235 69.2353 11.8909 69.519 11.8909C69.8026 11.8909 69.9445 12.0304 69.9445 12.3094C69.9445 12.5884 69.805 12.728 69.5259 12.728ZM64.6013 11.9467C66.3916 11.8072 67.5031 11.1887 67.9355 10.0912C68.0146 9.94243 68.1309 9.86802 68.2843 9.86802C68.3959 9.86802 68.4959 9.90988 68.5843 9.99358C68.6773 10.0726 68.7238 10.1703 68.7238 10.2866C68.7238 10.3563 68.7028 10.4261 68.661 10.4958C68.1169 11.8956 66.8195 12.6512 64.7687 12.7628C64.7361 12.7721 64.7036 12.7768 64.671 12.7768C64.4013 12.7768 64.2665 12.6326 64.2665 12.3443C64.2665 12.1257 64.3781 11.9932 64.6013 11.9467ZM72.1208 10.9074C72.1301 11.019 72.1348 11.1236 72.1348 11.2213C72.1348 11.7979 71.8302 12.2001 71.221 12.428C70.6397 12.6466 70.163 12.7559 69.791 12.7559C69.512 12.7559 69.3725 12.6164 69.3725 12.3373C69.3725 12.0583 69.512 11.9188 69.791 11.9188C70.1165 11.9188 70.4676 11.8421 70.8443 11.6886C71.0582 11.6003 71.1908 11.5119 71.2419 11.4235C71.2791 11.3538 71.2977 11.2399 71.2977 11.0818C71.2977 11.0352 71.2954 10.9841 71.2907 10.9283C71.2024 10.0447 71.0838 8.67522 70.935 6.81975V6.76395C70.935 6.61979 70.9861 6.49423 71.0884 6.38728C71.2047 6.26637 71.3279 6.20591 71.4581 6.20591C71.6256 6.20591 71.7186 6.30357 71.7372 6.49888C71.9325 8.86123 72.0604 10.3307 72.1208 10.9074ZM73.9414 11.019C73.9507 11.1213 73.9554 11.2213 73.9554 11.3189C73.9554 11.9374 73.8554 12.2467 73.6554 12.2467C73.5066 12.2467 73.3834 12.0072 73.2857 11.5282C73.2346 11.2724 73.1555 10.6842 73.0486 9.76339C72.9788 9.15885 72.8997 8.39621 72.8114 7.47545V7.42662C72.8114 7.21735 72.8649 7.04064 72.9718 6.89648C73.0741 6.75698 73.1904 6.68722 73.3206 6.68722C73.4787 6.68722 73.5671 6.79185 73.5857 7.00112C73.674 7.94048 73.7926 9.27976 73.9414 11.019ZM83.1211 12.7559C82.5538 12.7559 82.1538 12.5791 81.9213 12.2257C81.8981 12.1932 81.8492 12.0792 81.7748 11.8839C81.7237 11.7491 81.6702 11.6816 81.6144 11.6816C81.5493 11.6816 81.4702 11.7467 81.3772 11.877C81.2005 12.1374 80.9262 12.4699 80.5541 12.8744C80.0751 13.2139 79.1056 13.3836 77.6454 13.3836C77.3059 13.3836 77.1362 13.3069 77.1362 13.1535C77.1362 12.9953 77.3129 12.8791 77.6663 12.8047C78.0569 12.7489 78.4452 12.6931 78.8312 12.6373C79.5148 12.5024 79.9914 12.3025 80.2612 12.0374C80.4704 11.7677 80.6797 11.5003 80.8889 11.2352C81.1912 10.8678 81.4516 10.6842 81.6702 10.6842C81.926 10.6842 82.1492 10.8911 82.3398 11.305C82.5305 11.7142 82.7909 11.9188 83.1211 11.9188C83.4001 11.9188 83.5396 12.0583 83.5396 12.3373C83.5396 12.6164 83.4001 12.7559 83.1211 12.7559ZM88.1713 8.64732C88.8875 8.68917 89.3688 9.17978 89.6152 10.1191C89.8663 11.0539 89.9919 11.5886 89.9919 11.7235C89.9966 11.8537 90.1361 11.9235 90.4104 11.9328H90.4662C90.4848 11.9374 90.4941 11.9467 90.4941 11.9607V12.7698C90.4941 12.7884 90.4848 12.7977 90.4662 12.7977H90.3965C89.7547 12.7977 89.3432 12.5512 89.1618 12.0583C88.8828 10.5144 88.5201 9.69829 88.0737 9.60993C87.99 9.59598 87.8993 9.58901 87.8016 9.58901C87.3645 9.58901 86.7739 9.74247 86.0299 10.0494C85.8485 10.2168 85.7578 10.3052 85.7578 10.3145C86.2275 10.3656 86.5646 10.433 86.7692 10.5167C87.0808 10.6051 87.3017 10.7423 87.4319 10.9283C87.5203 11.1004 87.5645 11.2329 87.5645 11.3259V11.4096C87.5645 11.7491 87.3436 12.0048 86.9018 12.1769C85.8601 12.6001 84.9417 12.8117 84.1465 12.8117C84.0116 12.8117 83.8814 12.8047 83.7559 12.7907H83.1211C83.0978 12.7907 83.0862 12.7814 83.0862 12.7628V11.9537C83.0909 11.9351 83.1025 11.9258 83.1211 11.9258H83.7001C83.7977 11.9397 83.907 11.9467 84.0279 11.9467C84.6231 11.9467 85.5113 11.7677 86.6925 11.4096V11.3956C86.3065 11.2933 85.6625 11.1794 84.7603 11.0539C84.6069 10.9701 84.5301 10.8678 84.5301 10.7469V10.5865C84.5301 10.4051 84.6789 10.1633 84.9766 9.86105C85.2788 9.55878 85.7067 9.27046 86.26 8.99609C86.739 8.75893 87.2808 8.64035 87.8853 8.64035C87.9783 8.64035 88.0737 8.64267 88.1713 8.64732ZM87.1041 14.4718L86.8669 14.8555C86.7832 14.9903 86.6693 15.0578 86.5251 15.0578C86.4089 15.0578 86.3065 15.0159 86.2182 14.9322C86.1298 14.8531 86.0857 14.7555 86.0857 14.6392C86.0857 14.5648 86.1089 14.4881 86.1554 14.409L86.3926 14.0254C86.4763 13.8905 86.5902 13.8231 86.7344 13.8231C86.8506 13.8231 86.9529 13.8626 87.0413 13.9417C87.1296 14.0254 87.1738 14.1254 87.1738 14.2416C87.1738 14.316 87.1506 14.3928 87.1041 14.4718ZM97.2045 12.6861C96.5256 12.6861 96.0815 12.4443 95.8722 11.9607C95.8443 11.8956 95.8304 11.8305 95.8304 11.7653C95.8304 11.6444 95.8722 11.5445 95.9559 11.4654C96.0396 11.3817 96.1349 11.3398 96.2419 11.3398C96.3907 11.3398 96.5 11.4189 96.5698 11.577C96.6488 11.7584 96.8604 11.8491 97.2045 11.8491C97.4835 11.8491 97.623 11.9886 97.623 12.2676C97.623 12.5466 97.4835 12.6861 97.2045 12.6861ZM96.9464 11.2073C96.8255 11.6165 96.6046 11.9653 96.2838 12.2536C95.9257 12.5791 95.5258 12.7419 95.084 12.7419C94.7864 12.7419 94.4887 12.6629 94.1911 12.5047C94.0423 12.4303 93.9679 12.3164 93.9679 12.1629C93.9679 12.0467 94.0098 11.9421 94.0935 11.8491C94.1772 11.756 94.2748 11.7095 94.3864 11.7095C94.4608 11.7095 94.5329 11.7305 94.6027 11.7723C94.7747 11.8746 94.9445 11.9258 95.1119 11.9258C95.6095 11.9258 95.9513 11.6072 96.1373 10.9701C96.1977 10.7702 96.3279 10.6702 96.5279 10.6702C96.8162 10.6702 96.9604 10.8051 96.9604 11.0748C96.9604 11.1166 96.9557 11.1608 96.9464 11.2073ZM95.2793 11.4166C95.1026 11.8305 94.8398 12.1792 94.4911 12.4629C94.1097 12.7745 93.7098 12.9302 93.2913 12.9302C92.71 12.9302 92.3147 12.6326 92.1055 12.0374C92.0869 11.9816 92.0776 11.9304 92.0776 11.8839C92.0776 11.6142 92.224 11.4794 92.517 11.4794C92.7077 11.4794 92.8356 11.5724 92.9007 11.7584C92.9844 12.0002 93.1285 12.1211 93.3331 12.1211C93.5796 12.1211 93.8191 12.0025 94.0516 11.7653C94.2469 11.5747 94.4004 11.3515 94.512 11.0957C94.5818 10.9236 94.705 10.8376 94.8817 10.8376C95.17 10.8376 95.3142 10.9725 95.3142 11.2422C95.3142 11.298 95.3025 11.3561 95.2793 11.4166ZM93.4448 11.5352C92.817 12.349 91.9381 12.7559 90.808 12.7559C90.6918 12.7559 90.5732 12.7512 90.4523 12.7419C90.1733 12.7419 90.0338 12.6024 90.0338 12.3234C90.0338 12.0444 90.1733 11.9049 90.4523 11.9049C90.5732 11.9142 90.6918 11.9188 90.808 11.9188C91.659 11.9188 92.3147 11.6189 92.7751 11.019C92.8635 10.9074 92.9727 10.8516 93.103 10.8516C93.2146 10.8516 93.3145 10.8934 93.4029 10.9771C93.4913 11.0608 93.5354 11.1608 93.5354 11.2771C93.5354 11.3654 93.5052 11.4515 93.4448 11.5352ZM99.1088 5.91992H99.1646C99.2809 5.91992 99.3553 6.0013 99.3878 6.16406C99.3878 6.51748 99.4739 7.56845 99.6459 9.31696C99.6552 9.32626 99.6599 9.40299 99.6599 9.54715V9.76339C99.6599 9.97266 99.632 10.1819 99.5762 10.3912C99.8552 10.4098 100.109 10.4842 100.337 10.6144C100.485 10.726 100.56 10.8632 100.56 11.0259C100.56 11.5096 100.181 11.9002 99.4227 12.1978C98.5996 12.5373 97.9765 12.7163 97.5533 12.7349C97.4324 12.7303 97.3347 12.728 97.2603 12.728H97.1975C96.9976 12.728 96.8837 12.6047 96.8558 12.3583V12.3234C96.8558 12.0583 96.9929 11.9258 97.2673 11.9258H97.5045C97.9788 11.8607 98.3741 11.7491 98.6903 11.591C98.681 11.5119 98.6763 11.4561 98.6763 11.4235V11.3817C98.6763 11.098 98.76 10.812 98.9275 10.5237C98.9507 10.4261 98.9623 10.347 98.9623 10.2866V10.1959C98.9623 10.1447 98.874 9.20768 98.6973 7.38477C98.6508 6.83603 98.6275 6.51981 98.6275 6.4361C98.6275 6.22684 98.7507 6.06176 98.9972 5.94085C99.0251 5.9269 99.0623 5.91992 99.1088 5.91992ZM102.443 11.019C102.452 11.1213 102.457 11.2213 102.457 11.3189C102.457 11.9374 102.357 12.2467 102.157 12.2467C102.008 12.2467 101.885 12.0072 101.787 11.5282C101.736 11.2724 101.657 10.6842 101.55 9.76339C101.48 9.15885 101.401 8.39621 101.313 7.47545V7.42662C101.313 7.21735 101.367 7.04064 101.473 6.89648C101.576 6.75698 101.692 6.68722 101.822 6.68722C101.98 6.68722 102.069 6.79185 102.087 7.00112C102.176 7.94048 102.294 9.27976 102.443 11.019Z" fill="white"/>
</svg>
